<svg width="15px" height="15px" viewBox="0 0 29 29" xmlns="http://www.w3.org/2000/svg" fill="#525252">
    <path d="M26.664 4.82h-21.328c-1.178 0-2.132 0.955-2.132 2.133v13.868c0 1.178 0.955 2.133 2.132 2.133h14.968l4.226 4.226v-4.226h2.134c1.178 0 2.133-0.955 2.133-2.133v-13.868c-0-1.178-0.955-2.133-2.133-2.133zM27.73 20.821c0 0.588-0.479 1.066-1.066 1.066h-3.2v2.718l-2.718-2.718h-15.41c-0.588 0-1.066-0.478-1.066-1.066v-13.868c0-0.588 0.479-1.066 1.066-1.066h21.328c0.588 0 1.066 0.478 1.066 1.066v13.868z"/>
    <path d="M16 12.824c-0.589 0-1.066 0.478-1.066 1.066s0.477 1.066 1.066 1.066 1.066-0.477 1.066-1.066c0-0.588-0.477-1.066-1.066-1.066z"/>
    <path d="M20.265 12.824c-0.589 0-1.066 0.478-1.066 1.066s0.477 1.066 1.066 1.066 1.066-0.477 1.066-1.066c0-0.588-0.477-1.066-1.066-1.066z"/>
    <path d="M11.835 12.824c-0.589 0-1.066 0.478-1.066 1.066s0.477 1.066 1.066 1.066 1.066-0.477 1.066-1.066c0-0.588-0.477-1.066-1.066-1.066z"/>
</svg>
