<svg version="1.0" xmlns="http://www.w3.org/2000/svg" width="47" height="50" viewBox="0 0 251.000000 266.000000" preserveAspectRatio="xMidYMid meet"><g transform="translate(0.000000,266.000000) scale(0.100000,-0.100000)" fill="#8cbeb2" stroke="none"><path d="M1058 2434 c-424 -65 -795 -384 -927 -793 -77 -237 -75 -520 6 -744 144 -404 479 -693 894 -772 106 -20 322 -20 428 0 473 90 844 458 938 932 22 115 22 338 -1 444 -38 177 -109 337 -206 468 -264 357 -695 534 -1132 465z m-268 -936 c0 -205 -3 -390 -6 -410 l-7 -38 -62 0 -62 0 -6 83 c-4 45 -7 229 -7 410 l0 327 75 0 75 0 0 -372z m530 0 c0 -205 -3 -390 -6 -410 l-7 -38 -62 0 -62 0 -6 83 c-4 45 -7 229 -7 410 l0 327 75 0 75 0 0 -372z m530 0 c0 -205 -3 -390 -6 -410 l-7 -38 -62 0 -62 0 -6 83 c-4 45 -7 229 -7 410 l0 327 75 0 75 0 0 -372z m-1072 -618 c60 -56 24 -150 -58 -150 -58 0 -99 51 -86 105 10 38 45 65 86 65 23 0 44 -8 58 -20z m530 0 c60 -56 24 -150 -58 -150 -58 0 -99 51 -86 105 10 38 45 65 86 65 23 0 44 -8 58 -20z m530 0 c60 -56 24 -150 -58 -150 -58 0 -99 51 -86 105 10 38 45 65 86 65 23 0 44 -8 58 -20z" /></g></svg>