<svg version="1.0" xmlns="http://www.w3.org/2000/svg" width="50" height="48" viewBox="0 0 274.000000 265.000000" preserveAspectRatio="xMidYMid meet"><g transform="translate(0.000000,265.000000) scale(0.100000,-0.100000)" fill="#ffcc00" stroke="none"><path d="M1206 2430 c-584 -92 -1006 -579 -1006 -1160 0 -396 194 -758 521 -976 113 -75 218 -123 355 -161 93 -26 112 -28 294 -28 182 0 201 2 294 28 335 93 600 307 751 607 249 495 118 1098 -313 1442 -137 109 -277 177 -461 225 -108 28 -330 39 -435 23z m-26 -922 c0 -205 -3 -390 -6 -410 l-7 -38 -62 0 -62 0 -6 83 c-4 45 -7 229 -7 410 l0 327 75 0 75 0 0 -372z m530 0 c0 -205 -3 -390 -6 -410 l-7 -38 -62 0 -62 0 -6 83 c-4 45 -7 229 -7 410 l0 327 75 0 75 0 0 -372z m-542 -618 c60 -56 24 -150 -58 -150 -58 0 -99 51 -86 105 10 38 45 65 86 65 23 0 44 -8 58 -20z m530 0 c60 -56 24 -150 -58 -150 -58 0 -99 51 -86 105 10 38 45 65 86 65 23 0 44 -8 58 -20z" /></g></svg>